# xmcd
#
# Track frame offsets:
#	150
#	15406
#	31540
#	46092
#
# Disc length: 763 seconds
#
# Revision: 1
# Processed by: cddbd v1.5.2PL0 Copyright (c) Steve Scherf et al.
# Submitted via: EasyCDDAExtractor 11.9.9.666
#
DISCID=1a02f904
DTITLE=Various Artist - Split EP
DYEAR=1991
DGENRE=Alternative
TTITLE0=Eddie Spaghetti - Killer Weed
TTITLE1=Eddie Spaghetti  - Sleepy Vampire
TTITLE2=Railbenders - OD'd In Denver
TTITLE3=Railbenders  - One Foot In The Grave
EXTD=YEAR: 1991 ID3G: 20
EXTT0=
EXTT1=
EXTT2=
EXTT3=
PLAYORDER=
